<mxfile host="app.diagrams.net" modified="2024-01-21T15:02:31.134Z" agent="Mozilla/5.0 (Windows NT 10.0; Win64; x64) AppleWebKit/537.36 (KHTML, like Gecko) Chrome/120.0.0.0 Safari/537.36" etag="rOGOQZTFbi-DhyEiOttt" version="22.1.21" type="github">
  <diagram id="C5RBs43oDa-KdzZeNtuy" name="Page-1">
    <mxGraphModel dx="2219" dy="522" grid="1" gridSize="10" guides="1" tooltips="1" connect="1" arrows="1" fold="1" page="1" pageScale="1" pageWidth="1169" pageHeight="827" math="0" shadow="0">
      <root>
        <mxCell id="WIyWlLk6GJQsqaUBKTNV-0" />
        <mxCell id="WIyWlLk6GJQsqaUBKTNV-1" parent="WIyWlLk6GJQsqaUBKTNV-0" />
        <mxCell id="zkfFHV4jXpPFQw0GAbJ--0" value="Administrator" style="swimlane;fontStyle=2;align=center;verticalAlign=top;childLayout=stackLayout;horizontal=1;startSize=26;horizontalStack=0;resizeParent=1;resizeLast=0;collapsible=1;marginBottom=0;rounded=0;shadow=0;strokeWidth=1;fillColor=#dae8fc;strokeColor=#6c8ebf;" parent="WIyWlLk6GJQsqaUBKTNV-1" vertex="1">
          <mxGeometry x="-1000" y="40" width="180" height="210" as="geometry">
            <mxRectangle x="230" y="140" width="160" height="26" as="alternateBounds" />
          </mxGeometry>
        </mxCell>
        <mxCell id="zkfFHV4jXpPFQw0GAbJ--1" value="AdminID:Integer" style="text;align=left;verticalAlign=top;spacingLeft=4;spacingRight=4;overflow=hidden;rotatable=0;points=[[0,0.5],[1,0.5]];portConstraint=eastwest;" parent="zkfFHV4jXpPFQw0GAbJ--0" vertex="1">
          <mxGeometry y="26" width="180" height="26" as="geometry" />
        </mxCell>
        <mxCell id="zkfFHV4jXpPFQw0GAbJ--2" value="Name:String" style="text;align=left;verticalAlign=top;spacingLeft=4;spacingRight=4;overflow=hidden;rotatable=0;points=[[0,0.5],[1,0.5]];portConstraint=eastwest;rounded=0;shadow=0;html=0;" parent="zkfFHV4jXpPFQw0GAbJ--0" vertex="1">
          <mxGeometry y="52" width="180" height="26" as="geometry" />
        </mxCell>
        <mxCell id="zkfFHV4jXpPFQw0GAbJ--3" value="Role:String" style="text;align=left;verticalAlign=top;spacingLeft=4;spacingRight=4;overflow=hidden;rotatable=0;points=[[0,0.5],[1,0.5]];portConstraint=eastwest;rounded=0;shadow=0;html=0;" parent="zkfFHV4jXpPFQw0GAbJ--0" vertex="1">
          <mxGeometry y="78" width="180" height="26" as="geometry" />
        </mxCell>
        <mxCell id="zkfFHV4jXpPFQw0GAbJ--4" value="" style="line;html=1;strokeWidth=1;align=left;verticalAlign=middle;spacingTop=-1;spacingLeft=3;spacingRight=3;rotatable=0;labelPosition=right;points=[];portConstraint=eastwest;" parent="zkfFHV4jXpPFQw0GAbJ--0" vertex="1">
          <mxGeometry y="104" width="180" height="8" as="geometry" />
        </mxCell>
        <mxCell id="zkfFHV4jXpPFQw0GAbJ--5" value="+CreateAnnounncement()&#xa;&#xa;+SendAnnouncement()&#xa;&#xa;+OverseeEventManagement()&#xa;" style="text;align=left;verticalAlign=top;spacingLeft=4;spacingRight=4;overflow=hidden;rotatable=0;points=[[0,0.5],[1,0.5]];portConstraint=eastwest;spacing=3;spacingBottom=0;perimeterSpacing=0;spacingTop=2;" parent="zkfFHV4jXpPFQw0GAbJ--0" vertex="1">
          <mxGeometry y="112" width="180" height="98" as="geometry" />
        </mxCell>
        <mxCell id="zkfFHV4jXpPFQw0GAbJ--17" value="CounselingSession" style="swimlane;fontStyle=0;align=center;verticalAlign=top;childLayout=stackLayout;horizontal=1;startSize=26;horizontalStack=0;resizeParent=1;resizeLast=0;collapsible=1;marginBottom=0;rounded=0;shadow=0;strokeWidth=1;fillColor=#dae8fc;strokeColor=#6c8ebf;" parent="WIyWlLk6GJQsqaUBKTNV-1" vertex="1">
          <mxGeometry x="870" y="20" width="160" height="220" as="geometry">
            <mxRectangle x="550" y="140" width="160" height="26" as="alternateBounds" />
          </mxGeometry>
        </mxCell>
        <mxCell id="zkfFHV4jXpPFQw0GAbJ--18" value="SessionID:Integer" style="text;align=left;verticalAlign=top;spacingLeft=4;spacingRight=4;overflow=hidden;rotatable=0;points=[[0,0.5],[1,0.5]];portConstraint=eastwest;" parent="zkfFHV4jXpPFQw0GAbJ--17" vertex="1">
          <mxGeometry y="26" width="160" height="26" as="geometry" />
        </mxCell>
        <mxCell id="zkfFHV4jXpPFQw0GAbJ--19" value="DateTime:DateTime" style="text;align=left;verticalAlign=top;spacingLeft=4;spacingRight=4;overflow=hidden;rotatable=0;points=[[0,0.5],[1,0.5]];portConstraint=eastwest;rounded=0;shadow=0;html=0;" parent="zkfFHV4jXpPFQw0GAbJ--17" vertex="1">
          <mxGeometry y="52" width="160" height="26" as="geometry" />
        </mxCell>
        <mxCell id="zkfFHV4jXpPFQw0GAbJ--20" value="CounslerInfo:String" style="text;align=left;verticalAlign=top;spacingLeft=4;spacingRight=4;overflow=hidden;rotatable=0;points=[[0,0.5],[1,0.5]];portConstraint=eastwest;rounded=0;shadow=0;html=0;" parent="zkfFHV4jXpPFQw0GAbJ--17" vertex="1">
          <mxGeometry y="78" width="160" height="26" as="geometry" />
        </mxCell>
        <mxCell id="zkfFHV4jXpPFQw0GAbJ--21" value="MemberInfo:String" style="text;align=left;verticalAlign=top;spacingLeft=4;spacingRight=4;overflow=hidden;rotatable=0;points=[[0,0.5],[1,0.5]];portConstraint=eastwest;rounded=0;shadow=0;html=0;" parent="zkfFHV4jXpPFQw0GAbJ--17" vertex="1">
          <mxGeometry y="104" width="160" height="26" as="geometry" />
        </mxCell>
        <mxCell id="zkfFHV4jXpPFQw0GAbJ--23" value="" style="line;html=1;strokeWidth=1;align=left;verticalAlign=middle;spacingTop=-1;spacingLeft=3;spacingRight=3;rotatable=0;labelPosition=right;points=[];portConstraint=eastwest;" parent="zkfFHV4jXpPFQw0GAbJ--17" vertex="1">
          <mxGeometry y="130" width="160" height="8" as="geometry" />
        </mxCell>
        <mxCell id="zkfFHV4jXpPFQw0GAbJ--24" value="+StartSession()" style="text;align=left;verticalAlign=top;spacingLeft=4;spacingRight=4;overflow=hidden;rotatable=0;points=[[0,0.5],[1,0.5]];portConstraint=eastwest;" parent="zkfFHV4jXpPFQw0GAbJ--17" vertex="1">
          <mxGeometry y="138" width="160" height="26" as="geometry" />
        </mxCell>
        <mxCell id="zkfFHV4jXpPFQw0GAbJ--25" value="+EndSession()&#xa;&#xa;+GetSessionDetails()" style="text;align=left;verticalAlign=top;spacingLeft=4;spacingRight=4;overflow=hidden;rotatable=0;points=[[0,0.5],[1,0.5]];portConstraint=eastwest;" parent="zkfFHV4jXpPFQw0GAbJ--17" vertex="1">
          <mxGeometry y="164" width="160" height="46" as="geometry" />
        </mxCell>
        <mxCell id="depg-vYfWqoNCVjtNeU1-0" value="Staff" style="swimlane;fontStyle=0;align=center;verticalAlign=top;childLayout=stackLayout;horizontal=1;startSize=26;horizontalStack=0;resizeParent=1;resizeLast=0;collapsible=1;marginBottom=0;rounded=0;shadow=0;strokeWidth=1;fillColor=#dae8fc;strokeColor=#6c8ebf;" parent="WIyWlLk6GJQsqaUBKTNV-1" vertex="1">
          <mxGeometry x="-770" y="450" width="190" height="218" as="geometry">
            <mxRectangle x="130" y="380" width="160" height="26" as="alternateBounds" />
          </mxGeometry>
        </mxCell>
        <mxCell id="depg-vYfWqoNCVjtNeU1-1" value="StaffID:Integer" style="text;align=left;verticalAlign=top;spacingLeft=4;spacingRight=4;overflow=hidden;rotatable=0;points=[[0,0.5],[1,0.5]];portConstraint=eastwest;" parent="depg-vYfWqoNCVjtNeU1-0" vertex="1">
          <mxGeometry y="26" width="190" height="26" as="geometry" />
        </mxCell>
        <mxCell id="depg-vYfWqoNCVjtNeU1-2" value="Name:String&#xa;&#xa;Role:String" style="text;align=left;verticalAlign=top;spacingLeft=4;spacingRight=4;overflow=hidden;rotatable=0;points=[[0,0.5],[1,0.5]];portConstraint=eastwest;rounded=0;shadow=0;html=0;" parent="depg-vYfWqoNCVjtNeU1-0" vertex="1">
          <mxGeometry y="52" width="190" height="58" as="geometry" />
        </mxCell>
        <mxCell id="depg-vYfWqoNCVjtNeU1-3" value="" style="line;html=1;strokeWidth=1;align=left;verticalAlign=middle;spacingTop=-1;spacingLeft=3;spacingRight=3;rotatable=0;labelPosition=right;points=[];portConstraint=eastwest;" parent="depg-vYfWqoNCVjtNeU1-0" vertex="1">
          <mxGeometry y="110" width="190" height="10" as="geometry" />
        </mxCell>
        <mxCell id="depg-vYfWqoNCVjtNeU1-4" value="+AccessEventInformation()&#xa;&#xa;+AcessMemberInformation()&#xa;&#xa;+CommunicateWithMembers()" style="text;align=left;verticalAlign=top;spacingLeft=4;spacingRight=4;overflow=hidden;rotatable=0;points=[[0,0.5],[1,0.5]];portConstraint=eastwest;fontStyle=0" parent="depg-vYfWqoNCVjtNeU1-0" vertex="1">
          <mxGeometry y="120" width="190" height="80" as="geometry" />
        </mxCell>
        <mxCell id="depg-vYfWqoNCVjtNeU1-6" value="Visitor" style="swimlane;fontStyle=0;align=center;verticalAlign=top;childLayout=stackLayout;horizontal=1;startSize=26;horizontalStack=0;resizeParent=1;resizeLast=0;collapsible=1;marginBottom=0;rounded=0;shadow=0;strokeWidth=1;fillColor=#dae8fc;strokeColor=#6c8ebf;" parent="WIyWlLk6GJQsqaUBKTNV-1" vertex="1">
          <mxGeometry x="-420" y="450" width="210" height="200" as="geometry">
            <mxRectangle x="130" y="380" width="160" height="26" as="alternateBounds" />
          </mxGeometry>
        </mxCell>
        <mxCell id="depg-vYfWqoNCVjtNeU1-7" value="VisitorID:Integer" style="text;align=left;verticalAlign=top;spacingLeft=4;spacingRight=4;overflow=hidden;rotatable=0;points=[[0,0.5],[1,0.5]];portConstraint=eastwest;" parent="depg-vYfWqoNCVjtNeU1-6" vertex="1">
          <mxGeometry y="26" width="210" height="26" as="geometry" />
        </mxCell>
        <mxCell id="depg-vYfWqoNCVjtNeU1-8" value="Name:String" style="text;align=left;verticalAlign=top;spacingLeft=4;spacingRight=4;overflow=hidden;rotatable=0;points=[[0,0.5],[1,0.5]];portConstraint=eastwest;rounded=0;shadow=0;html=0;" parent="depg-vYfWqoNCVjtNeU1-6" vertex="1">
          <mxGeometry y="52" width="210" height="26" as="geometry" />
        </mxCell>
        <mxCell id="depg-vYfWqoNCVjtNeU1-9" value="" style="line;html=1;strokeWidth=1;align=left;verticalAlign=middle;spacingTop=-1;spacingLeft=3;spacingRight=3;rotatable=0;labelPosition=right;points=[];portConstraint=eastwest;" parent="depg-vYfWqoNCVjtNeU1-6" vertex="1">
          <mxGeometry y="78" width="210" height="8" as="geometry" />
        </mxCell>
        <mxCell id="depg-vYfWqoNCVjtNeU1-10" value="+AccessLivestream()&#xa;&#xa;" style="text;align=left;verticalAlign=top;spacingLeft=4;spacingRight=4;overflow=hidden;rotatable=0;points=[[0,0.5],[1,0.5]];portConstraint=eastwest;fontStyle=0" parent="depg-vYfWqoNCVjtNeU1-6" vertex="1">
          <mxGeometry y="86" width="210" height="26" as="geometry" />
        </mxCell>
        <mxCell id="depg-vYfWqoNCVjtNeU1-11" value="+AccessEventInformation()&#xa;&#xa;+Browse Website()&#xa;&#xa;+RequestMembershipApplication()" style="text;align=left;verticalAlign=top;spacingLeft=4;spacingRight=4;overflow=hidden;rotatable=0;points=[[0,0.5],[1,0.5]];portConstraint=eastwest;" parent="depg-vYfWqoNCVjtNeU1-6" vertex="1">
          <mxGeometry y="112" width="210" height="88" as="geometry" />
        </mxCell>
        <mxCell id="depg-vYfWqoNCVjtNeU1-12" value="Volunteer" style="swimlane;fontStyle=0;align=center;verticalAlign=top;childLayout=stackLayout;horizontal=1;startSize=26;horizontalStack=0;resizeParent=1;resizeLast=0;collapsible=1;marginBottom=0;rounded=0;shadow=0;strokeWidth=1;fillColor=#dae8fc;strokeColor=#6c8ebf;" parent="WIyWlLk6GJQsqaUBKTNV-1" vertex="1">
          <mxGeometry x="80" y="460" width="210" height="120" as="geometry">
            <mxRectangle x="130" y="380" width="160" height="26" as="alternateBounds" />
          </mxGeometry>
        </mxCell>
        <mxCell id="depg-vYfWqoNCVjtNeU1-13" value="VolunteerID:Integer" style="text;align=left;verticalAlign=top;spacingLeft=4;spacingRight=4;overflow=hidden;rotatable=0;points=[[0,0.5],[1,0.5]];portConstraint=eastwest;" parent="depg-vYfWqoNCVjtNeU1-12" vertex="1">
          <mxGeometry y="26" width="210" height="26" as="geometry" />
        </mxCell>
        <mxCell id="depg-vYfWqoNCVjtNeU1-14" value="Name:String" style="text;align=left;verticalAlign=top;spacingLeft=4;spacingRight=4;overflow=hidden;rotatable=0;points=[[0,0.5],[1,0.5]];portConstraint=eastwest;rounded=0;shadow=0;html=0;" parent="depg-vYfWqoNCVjtNeU1-12" vertex="1">
          <mxGeometry y="52" width="210" height="26" as="geometry" />
        </mxCell>
        <mxCell id="depg-vYfWqoNCVjtNeU1-15" value="" style="line;html=1;strokeWidth=1;align=left;verticalAlign=middle;spacingTop=-1;spacingLeft=3;spacingRight=3;rotatable=0;labelPosition=right;points=[];portConstraint=eastwest;" parent="depg-vYfWqoNCVjtNeU1-12" vertex="1">
          <mxGeometry y="78" width="210" height="8" as="geometry" />
        </mxCell>
        <mxCell id="depg-vYfWqoNCVjtNeU1-16" value="+CommunicatewithAdministrator()" style="text;align=left;verticalAlign=top;spacingLeft=4;spacingRight=4;overflow=hidden;rotatable=0;points=[[0,0.5],[1,0.5]];portConstraint=eastwest;fontStyle=0" parent="depg-vYfWqoNCVjtNeU1-12" vertex="1">
          <mxGeometry y="86" width="210" height="26" as="geometry" />
        </mxCell>
        <mxCell id="depg-vYfWqoNCVjtNeU1-18" value="Member" style="swimlane;fontStyle=0;align=center;verticalAlign=top;childLayout=stackLayout;horizontal=1;startSize=26;horizontalStack=0;resizeParent=1;resizeLast=0;collapsible=1;marginBottom=0;rounded=0;shadow=0;strokeWidth=1;fillColor=#dae8fc;strokeColor=#6c8ebf;" parent="WIyWlLk6GJQsqaUBKTNV-1" vertex="1">
          <mxGeometry x="600" y="450" width="250" height="310" as="geometry">
            <mxRectangle x="130" y="380" width="160" height="26" as="alternateBounds" />
          </mxGeometry>
        </mxCell>
        <mxCell id="depg-vYfWqoNCVjtNeU1-19" value="MemberID:Integer" style="text;align=left;verticalAlign=top;spacingLeft=4;spacingRight=4;overflow=hidden;rotatable=0;points=[[0,0.5],[1,0.5]];portConstraint=eastwest;" parent="depg-vYfWqoNCVjtNeU1-18" vertex="1">
          <mxGeometry y="26" width="250" height="26" as="geometry" />
        </mxCell>
        <mxCell id="depg-vYfWqoNCVjtNeU1-20" value="Name:String" style="text;align=left;verticalAlign=top;spacingLeft=4;spacingRight=4;overflow=hidden;rotatable=0;points=[[0,0.5],[1,0.5]];portConstraint=eastwest;rounded=0;shadow=0;html=0;" parent="depg-vYfWqoNCVjtNeU1-18" vertex="1">
          <mxGeometry y="52" width="250" height="26" as="geometry" />
        </mxCell>
        <mxCell id="depg-vYfWqoNCVjtNeU1-21" value="" style="line;html=1;strokeWidth=1;align=left;verticalAlign=middle;spacingTop=-1;spacingLeft=3;spacingRight=3;rotatable=0;labelPosition=right;points=[];portConstraint=eastwest;" parent="depg-vYfWqoNCVjtNeU1-18" vertex="1">
          <mxGeometry y="78" width="250" height="8" as="geometry" />
        </mxCell>
        <mxCell id="depg-vYfWqoNCVjtNeU1-22" value="+UpdatePesrsonalInformation()" style="text;align=left;verticalAlign=top;spacingLeft=4;spacingRight=4;overflow=hidden;rotatable=0;points=[[0,0.5],[1,0.5]];portConstraint=eastwest;fontStyle=0" parent="depg-vYfWqoNCVjtNeU1-18" vertex="1">
          <mxGeometry y="86" width="250" height="26" as="geometry" />
        </mxCell>
        <mxCell id="depg-vYfWqoNCVjtNeU1-23" value="+MakeDonations()&#xa;&#xa;+ViewDonationHistory()&#xa;&#xa;+AddToCart(item:Item)&#xa;&#xa;+RemoveFromCart()&#xa;&#xa;+ViewCart()&#xa;&#xa;+UpdatePaymentInformation()&#xa;&#xa;+AccessReligiousResources()&#xa;&#xa;&#xa;" style="text;align=left;verticalAlign=top;spacingLeft=4;spacingRight=4;overflow=hidden;rotatable=0;points=[[0,0.5],[1,0.5]];portConstraint=eastwest;" parent="depg-vYfWqoNCVjtNeU1-18" vertex="1">
          <mxGeometry y="112" width="250" height="198" as="geometry" />
        </mxCell>
        <mxCell id="depg-vYfWqoNCVjtNeU1-24" value="ServiceProvider" style="swimlane;fontStyle=0;align=center;verticalAlign=top;childLayout=stackLayout;horizontal=1;startSize=26;horizontalStack=0;resizeParent=1;resizeLast=0;collapsible=1;marginBottom=0;rounded=0;shadow=0;strokeWidth=1;fillColor=#dae8fc;strokeColor=#6c8ebf;" parent="WIyWlLk6GJQsqaUBKTNV-1" vertex="1">
          <mxGeometry x="930" y="450" width="160" height="100" as="geometry">
            <mxRectangle x="130" y="380" width="160" height="26" as="alternateBounds" />
          </mxGeometry>
        </mxCell>
        <mxCell id="depg-vYfWqoNCVjtNeU1-25" value="ProviderID:Integer" style="text;align=left;verticalAlign=top;spacingLeft=4;spacingRight=4;overflow=hidden;rotatable=0;points=[[0,0.5],[1,0.5]];portConstraint=eastwest;" parent="depg-vYfWqoNCVjtNeU1-24" vertex="1">
          <mxGeometry y="26" width="160" height="26" as="geometry" />
        </mxCell>
        <mxCell id="depg-vYfWqoNCVjtNeU1-26" value="Name:String" style="text;align=left;verticalAlign=top;spacingLeft=4;spacingRight=4;overflow=hidden;rotatable=0;points=[[0,0.5],[1,0.5]];portConstraint=eastwest;rounded=0;shadow=0;html=0;" parent="depg-vYfWqoNCVjtNeU1-24" vertex="1">
          <mxGeometry y="52" width="160" height="26" as="geometry" />
        </mxCell>
        <mxCell id="depg-vYfWqoNCVjtNeU1-27" value="" style="line;html=1;strokeWidth=1;align=left;verticalAlign=middle;spacingTop=-1;spacingLeft=3;spacingRight=3;rotatable=0;labelPosition=right;points=[];portConstraint=eastwest;" parent="depg-vYfWqoNCVjtNeU1-24" vertex="1">
          <mxGeometry y="78" width="160" height="8" as="geometry" />
        </mxCell>
        <mxCell id="depg-vYfWqoNCVjtNeU1-30" value="SystemAdministrator " style="swimlane;fontStyle=0;align=center;verticalAlign=top;childLayout=stackLayout;horizontal=1;startSize=26;horizontalStack=0;resizeParent=1;resizeLast=0;collapsible=1;marginBottom=0;rounded=0;shadow=0;strokeWidth=1;fillColor=#dae8fc;strokeColor=#6c8ebf;" parent="WIyWlLk6GJQsqaUBKTNV-1" vertex="1">
          <mxGeometry x="-1060" y="370" width="230" height="200" as="geometry">
            <mxRectangle x="130" y="380" width="160" height="26" as="alternateBounds" />
          </mxGeometry>
        </mxCell>
        <mxCell id="depg-vYfWqoNCVjtNeU1-31" value="AdminID:Integer" style="text;align=left;verticalAlign=top;spacingLeft=4;spacingRight=4;overflow=hidden;rotatable=0;points=[[0,0.5],[1,0.5]];portConstraint=eastwest;" parent="depg-vYfWqoNCVjtNeU1-30" vertex="1">
          <mxGeometry y="26" width="230" height="22" as="geometry" />
        </mxCell>
        <mxCell id="depg-vYfWqoNCVjtNeU1-32" value="Name:String" style="text;align=left;verticalAlign=top;spacingLeft=4;spacingRight=4;overflow=hidden;rotatable=0;points=[[0,0.5],[1,0.5]];portConstraint=eastwest;rounded=0;shadow=0;html=0;" parent="depg-vYfWqoNCVjtNeU1-30" vertex="1">
          <mxGeometry y="48" width="230" height="26" as="geometry" />
        </mxCell>
        <mxCell id="depg-vYfWqoNCVjtNeU1-33" value="" style="line;html=1;strokeWidth=1;align=left;verticalAlign=middle;spacingTop=-1;spacingLeft=3;spacingRight=3;rotatable=0;labelPosition=right;points=[];portConstraint=eastwest;" parent="depg-vYfWqoNCVjtNeU1-30" vertex="1">
          <mxGeometry y="74" width="230" height="8" as="geometry" />
        </mxCell>
        <mxCell id="depg-vYfWqoNCVjtNeU1-35" value="+AddStaffMember(staff:Staff)&#xa;&#xa;+RemoveStaffMember(staff:Staff)&#xa;&#xa;+AssignRole(staff:Staff ,role:str)&#xa;&#xa;+GenerateReport(reportType:str)&#xa;" style="text;align=left;verticalAlign=top;spacingLeft=4;spacingRight=4;overflow=hidden;rotatable=0;points=[[0,0.5],[1,0.5]];portConstraint=eastwest;" parent="depg-vYfWqoNCVjtNeU1-30" vertex="1">
          <mxGeometry y="82" width="230" height="118" as="geometry" />
        </mxCell>
        <mxCell id="depg-vYfWqoNCVjtNeU1-36" value="&lt;ul style=&quot;list-style-position: initial; list-style-image: initial; padding: 0 0 0 var(--pdl-spacing-xx-lg); margin: 0 0 var(--pdl-spacing-lg) 0; color: rgb(255, 255, 255); font-family: -apple-system, system-ui, BlinkMacSystemFont, &amp;quot;Segoe UI&amp;quot;, Roboto, Oxygen-Sans, Ubuntu, Cantarell, &amp;quot;Helvetica Neue&amp;quot;, sans-serif; font-size: 18px; text-align: start; background-color: rgb(36, 36, 36);&quot;&gt;&lt;li style=&quot;padding: 0px; margin: 0px;&quot;&gt;&lt;br&gt;&lt;/li&gt;&lt;/ul&gt;" style="text;html=1;align=center;verticalAlign=middle;resizable=0;points=[];autosize=1;strokeColor=none;fillColor=none;" parent="WIyWlLk6GJQsqaUBKTNV-1" vertex="1">
          <mxGeometry x="180" y="623" width="20" height="40" as="geometry" />
        </mxCell>
        <mxCell id="depg-vYfWqoNCVjtNeU1-43" value="&lt;ul style=&quot;list-style-position: initial; list-style-image: initial; padding: 0 0 0 var(--pdl-spacing-xx-lg); margin: 0 0 var(--pdl-spacing-lg) 0; color: rgb(255, 255, 255); font-family: -apple-system, system-ui, BlinkMacSystemFont, &amp;quot;Segoe UI&amp;quot;, Roboto, Oxygen-Sans, Ubuntu, Cantarell, &amp;quot;Helvetica Neue&amp;quot;, sans-serif; font-size: 18px; text-align: start; background-color: rgb(36, 36, 36);&quot;&gt;&lt;li style=&quot;padding: 0px; margin: 0px;&quot;&gt;&lt;br&gt;&lt;/li&gt;&lt;/ul&gt;" style="text;html=1;align=center;verticalAlign=middle;resizable=0;points=[];autosize=1;strokeColor=none;fillColor=none;" parent="WIyWlLk6GJQsqaUBKTNV-1" vertex="1">
          <mxGeometry x="740" y="713" width="20" height="40" as="geometry" />
        </mxCell>
        <mxCell id="depg-vYfWqoNCVjtNeU1-44" value="Report" style="swimlane;fontStyle=0;align=center;verticalAlign=top;childLayout=stackLayout;horizontal=1;startSize=26;horizontalStack=0;resizeParent=1;resizeLast=0;collapsible=1;marginBottom=0;rounded=0;shadow=0;strokeWidth=1;fillColor=#dae8fc;strokeColor=#6c8ebf;" parent="WIyWlLk6GJQsqaUBKTNV-1" vertex="1">
          <mxGeometry x="-770" y="880" width="190" height="190" as="geometry">
            <mxRectangle x="130" y="380" width="160" height="26" as="alternateBounds" />
          </mxGeometry>
        </mxCell>
        <mxCell id="depg-vYfWqoNCVjtNeU1-45" value="ReportID:Integer" style="text;align=left;verticalAlign=top;spacingLeft=4;spacingRight=4;overflow=hidden;rotatable=0;points=[[0,0.5],[1,0.5]];portConstraint=eastwest;" parent="depg-vYfWqoNCVjtNeU1-44" vertex="1">
          <mxGeometry y="26" width="190" height="26" as="geometry" />
        </mxCell>
        <mxCell id="depg-vYfWqoNCVjtNeU1-46" value="Type:String&#xa;&#xa;Content:String&#xa;&#xa;DataRange:String" style="text;align=left;verticalAlign=top;spacingLeft=4;spacingRight=4;overflow=hidden;rotatable=0;points=[[0,0.5],[1,0.5]];portConstraint=eastwest;rounded=0;shadow=0;html=0;" parent="depg-vYfWqoNCVjtNeU1-44" vertex="1">
          <mxGeometry y="52" width="190" height="78" as="geometry" />
        </mxCell>
        <mxCell id="depg-vYfWqoNCVjtNeU1-47" value="" style="line;html=1;strokeWidth=1;align=left;verticalAlign=middle;spacingTop=-1;spacingLeft=3;spacingRight=3;rotatable=0;labelPosition=right;points=[];portConstraint=eastwest;" parent="depg-vYfWqoNCVjtNeU1-44" vertex="1">
          <mxGeometry y="130" width="190" height="30" as="geometry" />
        </mxCell>
        <mxCell id="depg-vYfWqoNCVjtNeU1-48" value="+GenerateReport(reportType:str)" style="text;align=left;verticalAlign=top;spacingLeft=4;spacingRight=4;overflow=hidden;rotatable=0;points=[[0,0.5],[1,0.5]];portConstraint=eastwest;fontStyle=0" parent="depg-vYfWqoNCVjtNeU1-44" vertex="1">
          <mxGeometry y="160" width="190" height="30" as="geometry" />
        </mxCell>
        <mxCell id="depg-vYfWqoNCVjtNeU1-54" value="Donor" style="swimlane;fontStyle=0;align=center;verticalAlign=top;childLayout=stackLayout;horizontal=1;startSize=26;horizontalStack=0;resizeParent=1;resizeLast=0;collapsible=1;marginBottom=0;rounded=0;shadow=0;strokeWidth=1;fillColor=#dae8fc;strokeColor=#6c8ebf;" parent="WIyWlLk6GJQsqaUBKTNV-1" vertex="1">
          <mxGeometry x="95" y="880" width="190" height="150" as="geometry">
            <mxRectangle x="130" y="380" width="160" height="26" as="alternateBounds" />
          </mxGeometry>
        </mxCell>
        <mxCell id="depg-vYfWqoNCVjtNeU1-55" value="DonorID:Integer" style="text;align=left;verticalAlign=top;spacingLeft=4;spacingRight=4;overflow=hidden;rotatable=0;points=[[0,0.5],[1,0.5]];portConstraint=eastwest;" parent="depg-vYfWqoNCVjtNeU1-54" vertex="1">
          <mxGeometry y="26" width="190" height="26" as="geometry" />
        </mxCell>
        <mxCell id="depg-vYfWqoNCVjtNeU1-56" value="Name:String" style="text;align=left;verticalAlign=top;spacingLeft=4;spacingRight=4;overflow=hidden;rotatable=0;points=[[0,0.5],[1,0.5]];portConstraint=eastwest;rounded=0;shadow=0;html=0;" parent="depg-vYfWqoNCVjtNeU1-54" vertex="1">
          <mxGeometry y="52" width="190" height="28" as="geometry" />
        </mxCell>
        <mxCell id="depg-vYfWqoNCVjtNeU1-57" value="" style="line;html=1;strokeWidth=1;align=left;verticalAlign=middle;spacingTop=-1;spacingLeft=3;spacingRight=3;rotatable=0;labelPosition=right;points=[];portConstraint=eastwest;" parent="depg-vYfWqoNCVjtNeU1-54" vertex="1">
          <mxGeometry y="80" width="190" height="10" as="geometry" />
        </mxCell>
        <mxCell id="depg-vYfWqoNCVjtNeU1-58" value="+AddDonation()&#xa;&#xa;+ViewDonationHistory()" style="text;align=left;verticalAlign=top;spacingLeft=4;spacingRight=4;overflow=hidden;rotatable=0;points=[[0,0.5],[1,0.5]];portConstraint=eastwest;fontStyle=0" parent="depg-vYfWqoNCVjtNeU1-54" vertex="1">
          <mxGeometry y="90" width="190" height="60" as="geometry" />
        </mxCell>
        <mxCell id="depg-vYfWqoNCVjtNeU1-64" value="Donation" style="swimlane;fontStyle=0;align=center;verticalAlign=top;childLayout=stackLayout;horizontal=1;startSize=26;horizontalStack=0;resizeParent=1;resizeLast=0;collapsible=1;marginBottom=0;rounded=0;shadow=0;strokeWidth=1;fillColor=#dae8fc;strokeColor=#6c8ebf;" parent="WIyWlLk6GJQsqaUBKTNV-1" vertex="1">
          <mxGeometry x="40" y="1252" width="190" height="226" as="geometry">
            <mxRectangle x="130" y="380" width="160" height="26" as="alternateBounds" />
          </mxGeometry>
        </mxCell>
        <mxCell id="nV8pJnAJ6u3Ka_N1cegT-32" value="DonationID:Integer" style="text;align=left;verticalAlign=top;spacingLeft=4;spacingRight=4;overflow=hidden;rotatable=0;points=[[0,0.5],[1,0.5]];portConstraint=eastwest;" vertex="1" parent="depg-vYfWqoNCVjtNeU1-64">
          <mxGeometry y="26" width="190" height="26" as="geometry" />
        </mxCell>
        <mxCell id="depg-vYfWqoNCVjtNeU1-65" value="DonationID:Integer" style="text;align=left;verticalAlign=top;spacingLeft=4;spacingRight=4;overflow=hidden;rotatable=0;points=[[0,0.5],[1,0.5]];portConstraint=eastwest;" parent="depg-vYfWqoNCVjtNeU1-64" vertex="1">
          <mxGeometry y="52" width="190" height="26" as="geometry" />
        </mxCell>
        <mxCell id="depg-vYfWqoNCVjtNeU1-66" value="DonationAmount:Decimal&#xa;&#xa;Date:Date" style="text;align=left;verticalAlign=top;spacingLeft=4;spacingRight=4;overflow=hidden;rotatable=0;points=[[0,0.5],[1,0.5]];portConstraint=eastwest;rounded=0;shadow=0;html=0;" parent="depg-vYfWqoNCVjtNeU1-64" vertex="1">
          <mxGeometry y="78" width="190" height="58" as="geometry" />
        </mxCell>
        <mxCell id="depg-vYfWqoNCVjtNeU1-67" value="" style="line;html=1;strokeWidth=1;align=left;verticalAlign=middle;spacingTop=-1;spacingLeft=3;spacingRight=3;rotatable=0;labelPosition=right;points=[];portConstraint=eastwest;" parent="depg-vYfWqoNCVjtNeU1-64" vertex="1">
          <mxGeometry y="136" width="190" height="10" as="geometry" />
        </mxCell>
        <mxCell id="depg-vYfWqoNCVjtNeU1-68" value="+RecordDonation()&#xa;&#xa;+GetDonationReport()&#xa;&#xa;+SendDonationThankYouEmail()" style="text;align=left;verticalAlign=top;spacingLeft=4;spacingRight=4;overflow=hidden;rotatable=0;points=[[0,0.5],[1,0.5]];portConstraint=eastwest;fontStyle=0" parent="depg-vYfWqoNCVjtNeU1-64" vertex="1">
          <mxGeometry y="146" width="190" height="80" as="geometry" />
        </mxCell>
        <mxCell id="depg-vYfWqoNCVjtNeU1-74" value="Membership" style="swimlane;fontStyle=0;align=center;verticalAlign=top;childLayout=stackLayout;horizontal=1;startSize=26;horizontalStack=0;resizeParent=1;resizeLast=0;collapsible=1;marginBottom=0;rounded=0;shadow=0;strokeWidth=1;fillColor=#dae8fc;strokeColor=#6c8ebf;" parent="WIyWlLk6GJQsqaUBKTNV-1" vertex="1">
          <mxGeometry x="-350" y="1370" width="240" height="270" as="geometry">
            <mxRectangle x="130" y="380" width="160" height="26" as="alternateBounds" />
          </mxGeometry>
        </mxCell>
        <mxCell id="depg-vYfWqoNCVjtNeU1-75" value="MemberID:Integer" style="text;align=left;verticalAlign=top;spacingLeft=4;spacingRight=4;overflow=hidden;rotatable=0;points=[[0,0.5],[1,0.5]];portConstraint=eastwest;" parent="depg-vYfWqoNCVjtNeU1-74" vertex="1">
          <mxGeometry y="26" width="240" height="26" as="geometry" />
        </mxCell>
        <mxCell id="depg-vYfWqoNCVjtNeU1-76" value="ContactInfo:String&#xa;&#xa;MembershipStatus:String&#xa;&#xa;Name:String" style="text;align=left;verticalAlign=top;spacingLeft=4;spacingRight=4;overflow=hidden;rotatable=0;points=[[0,0.5],[1,0.5]];portConstraint=eastwest;rounded=0;shadow=0;html=0;" parent="depg-vYfWqoNCVjtNeU1-74" vertex="1">
          <mxGeometry y="52" width="240" height="88" as="geometry" />
        </mxCell>
        <mxCell id="depg-vYfWqoNCVjtNeU1-77" value="" style="line;html=1;strokeWidth=1;align=left;verticalAlign=middle;spacingTop=-1;spacingLeft=3;spacingRight=3;rotatable=0;labelPosition=right;points=[];portConstraint=eastwest;" parent="depg-vYfWqoNCVjtNeU1-74" vertex="1">
          <mxGeometry y="140" width="240" height="10" as="geometry" />
        </mxCell>
        <mxCell id="depg-vYfWqoNCVjtNeU1-78" value="+RegisterMember(member:Member)&#xa;&#xa;+UpdateMember()member:Member&#xa;&#xa;+RecordDonations()&#xa;&#xa;+ViewMemberDetails()&#xa;&#xa;" style="text;align=left;verticalAlign=top;spacingLeft=4;spacingRight=4;overflow=hidden;rotatable=0;points=[[0,0.5],[1,0.5]];portConstraint=eastwest;fontStyle=0" parent="depg-vYfWqoNCVjtNeU1-74" vertex="1">
          <mxGeometry y="150" width="240" height="110" as="geometry" />
        </mxCell>
        <mxCell id="depg-vYfWqoNCVjtNeU1-81" value="Event" style="swimlane;fontStyle=0;align=center;verticalAlign=top;childLayout=stackLayout;horizontal=1;startSize=26;horizontalStack=0;resizeParent=1;resizeLast=0;collapsible=1;marginBottom=0;rounded=0;shadow=0;strokeWidth=1;fillColor=#dae8fc;strokeColor=#6c8ebf;" parent="WIyWlLk6GJQsqaUBKTNV-1" vertex="1">
          <mxGeometry x="-390" y="880" width="230" height="280" as="geometry">
            <mxRectangle x="130" y="380" width="160" height="26" as="alternateBounds" />
          </mxGeometry>
        </mxCell>
        <mxCell id="depg-vYfWqoNCVjtNeU1-82" value="EventID:Integer" style="text;align=left;verticalAlign=top;spacingLeft=4;spacingRight=4;overflow=hidden;rotatable=0;points=[[0,0.5],[1,0.5]];portConstraint=eastwest;" parent="depg-vYfWqoNCVjtNeU1-81" vertex="1">
          <mxGeometry y="26" width="230" height="26" as="geometry" />
        </mxCell>
        <mxCell id="depg-vYfWqoNCVjtNeU1-83" value="Title:String&#xa;&#xa;Description:String&#xa;&#xa;Date:Date" style="text;align=left;verticalAlign=top;spacingLeft=4;spacingRight=4;overflow=hidden;rotatable=0;points=[[0,0.5],[1,0.5]];portConstraint=eastwest;rounded=0;shadow=0;html=0;" parent="depg-vYfWqoNCVjtNeU1-81" vertex="1">
          <mxGeometry y="52" width="230" height="78" as="geometry" />
        </mxCell>
        <mxCell id="depg-vYfWqoNCVjtNeU1-84" value="" style="line;html=1;strokeWidth=1;align=left;verticalAlign=middle;spacingTop=-1;spacingLeft=3;spacingRight=3;rotatable=0;labelPosition=right;points=[];portConstraint=eastwest;" parent="depg-vYfWqoNCVjtNeU1-81" vertex="1">
          <mxGeometry y="130" width="230" height="30" as="geometry" />
        </mxCell>
        <mxCell id="depg-vYfWqoNCVjtNeU1-85" value="+CreateEvent(event:Event)&#xa;&#xa;+UpdateEventDetails(event:Event)&#xa;&#xa;+ViewEventDetails(event:Event)&#xa;&#xa;+CancelEvent(event:Event)" style="text;align=left;verticalAlign=top;spacingLeft=4;spacingRight=4;overflow=hidden;rotatable=0;points=[[0,0.5],[1,0.5]];portConstraint=eastwest;fontStyle=0" parent="depg-vYfWqoNCVjtNeU1-81" vertex="1">
          <mxGeometry y="160" width="230" height="120" as="geometry" />
        </mxCell>
        <mxCell id="depg-vYfWqoNCVjtNeU1-87" value="ReligiousItem" style="swimlane;fontStyle=0;align=center;verticalAlign=top;childLayout=stackLayout;horizontal=1;startSize=26;horizontalStack=0;resizeParent=1;resizeLast=0;collapsible=1;marginBottom=0;rounded=0;shadow=0;strokeWidth=1;fillColor=#dae8fc;strokeColor=#6c8ebf;" parent="WIyWlLk6GJQsqaUBKTNV-1" vertex="1">
          <mxGeometry x="640" y="880" width="230" height="490" as="geometry">
            <mxRectangle x="130" y="380" width="160" height="26" as="alternateBounds" />
          </mxGeometry>
        </mxCell>
        <mxCell id="depg-vYfWqoNCVjtNeU1-88" value="ItemID:Integer" style="text;align=left;verticalAlign=top;spacingLeft=4;spacingRight=4;overflow=hidden;rotatable=0;points=[[0,0.5],[1,0.5]];portConstraint=eastwest;" parent="depg-vYfWqoNCVjtNeU1-87" vertex="1">
          <mxGeometry y="26" width="230" height="26" as="geometry" />
        </mxCell>
        <mxCell id="depg-vYfWqoNCVjtNeU1-89" value="Name:String&#xa;&#xa;Description:String&#xa;&#xa;Type:String&#xa;&#xa;Quantitiy:Integer&#xa;&#xa;Price:Integer&#xa;&#xa;Author:String" style="text;align=left;verticalAlign=top;spacingLeft=4;spacingRight=4;overflow=hidden;rotatable=0;points=[[0,0.5],[1,0.5]];portConstraint=eastwest;rounded=0;shadow=0;html=0;" parent="depg-vYfWqoNCVjtNeU1-87" vertex="1">
          <mxGeometry y="52" width="230" height="168" as="geometry" />
        </mxCell>
        <mxCell id="depg-vYfWqoNCVjtNeU1-90" value="" style="line;html=1;strokeWidth=1;align=left;verticalAlign=middle;spacingTop=-1;spacingLeft=3;spacingRight=3;rotatable=0;labelPosition=right;points=[];portConstraint=eastwest;" parent="depg-vYfWqoNCVjtNeU1-87" vertex="1">
          <mxGeometry y="220" width="230" height="30" as="geometry" />
        </mxCell>
        <mxCell id="depg-vYfWqoNCVjtNeU1-91" value="+AddItem(item:Item)&#xa;&#xa;+RemoveItem(item:Item)&#xa;&#xa;+UpdateItem(item:Item)&#xa;&#xa;+ViewInventory()&#xa;&#xa;+SearchItem()&#xa;&#xa;+ViewItemDetails()&#xa;&#xa;+AddToCart()&#xa;&#xa;+RemoveFromCart()&#xa;&#xa;" style="text;align=left;verticalAlign=top;spacingLeft=4;spacingRight=4;overflow=hidden;rotatable=0;points=[[0,0.5],[1,0.5]];portConstraint=eastwest;fontStyle=0" parent="depg-vYfWqoNCVjtNeU1-87" vertex="1">
          <mxGeometry y="250" width="230" height="240" as="geometry" />
        </mxCell>
        <mxCell id="depg-vYfWqoNCVjtNeU1-94" value="Livestream" style="swimlane;fontStyle=0;align=center;verticalAlign=top;childLayout=stackLayout;horizontal=1;startSize=26;horizontalStack=0;resizeParent=1;resizeLast=0;collapsible=1;marginBottom=0;rounded=0;shadow=0;strokeWidth=1;fillColor=#dae8fc;strokeColor=#6c8ebf;" parent="WIyWlLk6GJQsqaUBKTNV-1" vertex="1">
          <mxGeometry x="340" y="1310" width="230" height="320" as="geometry">
            <mxRectangle x="130" y="380" width="160" height="26" as="alternateBounds" />
          </mxGeometry>
        </mxCell>
        <mxCell id="depg-vYfWqoNCVjtNeU1-95" value="StreamID:Integer" style="text;align=left;verticalAlign=top;spacingLeft=4;spacingRight=4;overflow=hidden;rotatable=0;points=[[0,0.5],[1,0.5]];portConstraint=eastwest;" parent="depg-vYfWqoNCVjtNeU1-94" vertex="1">
          <mxGeometry y="26" width="230" height="26" as="geometry" />
        </mxCell>
        <mxCell id="depg-vYfWqoNCVjtNeU1-96" value="Title:String&#xa;&#xa;Description:String&#xa;&#xa;StartTime:DateTime&#xa;&#xa;EndTime:DateTime&#xa;&#xa;StreamURL:String" style="text;align=left;verticalAlign=top;spacingLeft=4;spacingRight=4;overflow=hidden;rotatable=0;points=[[0,0.5],[1,0.5]];portConstraint=eastwest;rounded=0;shadow=0;html=0;" parent="depg-vYfWqoNCVjtNeU1-94" vertex="1">
          <mxGeometry y="52" width="230" height="138" as="geometry" />
        </mxCell>
        <mxCell id="depg-vYfWqoNCVjtNeU1-97" value="" style="line;html=1;strokeWidth=1;align=left;verticalAlign=middle;spacingTop=-1;spacingLeft=3;spacingRight=3;rotatable=0;labelPosition=right;points=[];portConstraint=eastwest;" parent="depg-vYfWqoNCVjtNeU1-94" vertex="1">
          <mxGeometry y="190" width="230" height="30" as="geometry" />
        </mxCell>
        <mxCell id="depg-vYfWqoNCVjtNeU1-98" value="+StartLivestream()&#xa;&#xa;+EndLivestream()&#xa;&#xa;+ScheduleLivestream()&#xa;" style="text;align=left;verticalAlign=top;spacingLeft=4;spacingRight=4;overflow=hidden;rotatable=0;points=[[0,0.5],[1,0.5]];portConstraint=eastwest;fontStyle=0" parent="depg-vYfWqoNCVjtNeU1-94" vertex="1">
          <mxGeometry y="220" width="230" height="90" as="geometry" />
        </mxCell>
        <mxCell id="depg-vYfWqoNCVjtNeU1-101" value="&lt;font style=&quot;font-size: 14px;&quot;&gt;Inherits from&lt;/font&gt;" style="text;html=1;align=center;verticalAlign=middle;resizable=0;points=[];autosize=1;strokeColor=none;fillColor=none;" parent="WIyWlLk6GJQsqaUBKTNV-1" vertex="1">
          <mxGeometry x="-940" y="300" width="100" height="30" as="geometry" />
        </mxCell>
        <mxCell id="depg-vYfWqoNCVjtNeU1-103" value="&lt;font style=&quot;font-size: 14px;&quot;&gt;Inherits from&lt;/font&gt;" style="text;html=1;align=center;verticalAlign=middle;resizable=0;points=[];autosize=1;strokeColor=none;fillColor=none;" parent="WIyWlLk6GJQsqaUBKTNV-1" vertex="1">
          <mxGeometry x="-730" y="350" width="100" height="30" as="geometry" />
        </mxCell>
        <mxCell id="depg-vYfWqoNCVjtNeU1-105" value="&lt;font style=&quot;font-size: 14px;&quot;&gt;For&lt;/font&gt;" style="text;html=1;align=center;verticalAlign=middle;resizable=0;points=[];autosize=1;strokeColor=none;fillColor=none;" parent="WIyWlLk6GJQsqaUBKTNV-1" vertex="1">
          <mxGeometry x="830" y="330" width="40" height="30" as="geometry" />
        </mxCell>
        <mxCell id="nV8pJnAJ6u3Ka_N1cegT-2" value="" style="endArrow=block;endSize=16;endFill=0;html=1;rounded=0;exitX=0.533;exitY=-0.02;exitDx=0;exitDy=0;exitPerimeter=0;" edge="1" parent="WIyWlLk6GJQsqaUBKTNV-1" source="depg-vYfWqoNCVjtNeU1-30">
          <mxGeometry width="160" relative="1" as="geometry">
            <mxPoint x="-940" y="360" as="sourcePoint" />
            <mxPoint x="-939.8599999999999" y="250" as="targetPoint" />
            <Array as="points" />
          </mxGeometry>
        </mxCell>
        <mxCell id="nV8pJnAJ6u3Ka_N1cegT-3" value="" style="endArrow=block;endSize=16;endFill=0;html=1;rounded=0;exitX=1.004;exitY=0.682;exitDx=0;exitDy=0;exitPerimeter=0;entryX=0.423;entryY=-0.015;entryDx=0;entryDy=0;entryPerimeter=0;" edge="1" parent="WIyWlLk6GJQsqaUBKTNV-1" source="zkfFHV4jXpPFQw0GAbJ--5" target="depg-vYfWqoNCVjtNeU1-0">
          <mxGeometry width="160" relative="1" as="geometry">
            <mxPoint x="-850" y="270" as="sourcePoint" />
            <mxPoint x="-680" y="440" as="targetPoint" />
            <Array as="points" />
          </mxGeometry>
        </mxCell>
        <mxCell id="nV8pJnAJ6u3Ka_N1cegT-4" value="" style="endArrow=classic;html=1;rounded=0;exitX=-0.022;exitY=0.313;exitDx=0;exitDy=0;exitPerimeter=0;entryX=0.698;entryY=0.005;entryDx=0;entryDy=0;entryPerimeter=0;" edge="1" parent="WIyWlLk6GJQsqaUBKTNV-1" source="zkfFHV4jXpPFQw0GAbJ--25" target="depg-vYfWqoNCVjtNeU1-18">
          <mxGeometry width="50" height="50" relative="1" as="geometry">
            <mxPoint x="650" y="250" as="sourcePoint" />
            <mxPoint x="700" y="200" as="targetPoint" />
          </mxGeometry>
        </mxCell>
        <mxCell id="nV8pJnAJ6u3Ka_N1cegT-5" value="" style="endArrow=diamondThin;endFill=0;endSize=24;html=1;rounded=0;entryX=0.385;entryY=-0.015;entryDx=0;entryDy=0;entryPerimeter=0;" edge="1" parent="WIyWlLk6GJQsqaUBKTNV-1" target="depg-vYfWqoNCVjtNeU1-44">
          <mxGeometry width="160" relative="1" as="geometry">
            <mxPoint x="-700" y="670" as="sourcePoint" />
            <mxPoint x="-650" y="790" as="targetPoint" />
          </mxGeometry>
        </mxCell>
        <mxCell id="nV8pJnAJ6u3Ka_N1cegT-6" value="&lt;font style=&quot;font-size: 14px;&quot;&gt;Generates&lt;/font&gt;" style="text;html=1;align=center;verticalAlign=middle;resizable=0;points=[];autosize=1;strokeColor=none;fillColor=none;" vertex="1" parent="WIyWlLk6GJQsqaUBKTNV-1">
          <mxGeometry x="-695" y="780" width="90" height="30" as="geometry" />
        </mxCell>
        <mxCell id="nV8pJnAJ6u3Ka_N1cegT-7" value="" style="endArrow=diamondThin;endFill=1;endSize=24;html=1;rounded=0;entryX=0.064;entryY=-0.01;entryDx=0;entryDy=0;entryPerimeter=0;" edge="1" parent="WIyWlLk6GJQsqaUBKTNV-1" target="depg-vYfWqoNCVjtNeU1-81">
          <mxGeometry width="160" relative="1" as="geometry">
            <mxPoint x="-590" y="670" as="sourcePoint" />
            <mxPoint x="-650" y="790" as="targetPoint" />
          </mxGeometry>
        </mxCell>
        <mxCell id="nV8pJnAJ6u3Ka_N1cegT-8" value="&lt;font style=&quot;font-size: 14px;&quot;&gt;Manages&lt;/font&gt;" style="text;html=1;align=center;verticalAlign=middle;resizable=0;points=[];autosize=1;strokeColor=none;fillColor=none;" vertex="1" parent="WIyWlLk6GJQsqaUBKTNV-1">
          <mxGeometry x="-520" y="718" width="80" height="30" as="geometry" />
        </mxCell>
        <mxCell id="nV8pJnAJ6u3Ka_N1cegT-9" value="" style="endArrow=diamondThin;endFill=1;endSize=24;html=1;rounded=0;entryX=0.287;entryY=-0.01;entryDx=0;entryDy=0;entryPerimeter=0;exitX=0.507;exitY=1.045;exitDx=0;exitDy=0;exitPerimeter=0;" edge="1" parent="WIyWlLk6GJQsqaUBKTNV-1" source="depg-vYfWqoNCVjtNeU1-11">
          <mxGeometry width="160" relative="1" as="geometry">
            <mxPoint x="-302.46855457227116" y="652.8" as="sourcePoint" />
            <mxPoint x="-309.9999999999998" y="880" as="targetPoint" />
          </mxGeometry>
        </mxCell>
        <mxCell id="nV8pJnAJ6u3Ka_N1cegT-10" value="&lt;font style=&quot;font-size: 14px;&quot;&gt;Attends&lt;/font&gt;" style="text;html=1;align=center;verticalAlign=middle;resizable=0;points=[];autosize=1;strokeColor=none;fillColor=none;" vertex="1" parent="WIyWlLk6GJQsqaUBKTNV-1">
          <mxGeometry x="-310" y="750" width="70" height="30" as="geometry" />
        </mxCell>
        <mxCell id="nV8pJnAJ6u3Ka_N1cegT-11" value="" style="endArrow=diamondThin;endFill=1;endSize=24;html=1;rounded=0;entryX=0.562;entryY=-0.013;entryDx=0;entryDy=0;entryPerimeter=0;" edge="1" parent="WIyWlLk6GJQsqaUBKTNV-1" target="depg-vYfWqoNCVjtNeU1-81">
          <mxGeometry width="160" relative="1" as="geometry">
            <mxPoint x="150" y="580" as="sourcePoint" />
            <mxPoint x="-160" y="690" as="targetPoint" />
          </mxGeometry>
        </mxCell>
        <mxCell id="nV8pJnAJ6u3Ka_N1cegT-12" value="&lt;font style=&quot;font-size: 14px;&quot;&gt;Assists with&lt;/font&gt;" style="text;html=1;align=center;verticalAlign=middle;resizable=0;points=[];autosize=1;strokeColor=none;fillColor=none;" vertex="1" parent="WIyWlLk6GJQsqaUBKTNV-1">
          <mxGeometry x="-130" y="680" width="100" height="30" as="geometry" />
        </mxCell>
        <mxCell id="nV8pJnAJ6u3Ka_N1cegT-13" value="" style="endArrow=diamondThin;endFill=1;endSize=24;html=1;rounded=0;exitX=-0.013;exitY=0.323;exitDx=0;exitDy=0;exitPerimeter=0;entryX=0.83;entryY=-0.016;entryDx=0;entryDy=0;entryPerimeter=0;" edge="1" parent="WIyWlLk6GJQsqaUBKTNV-1" source="depg-vYfWqoNCVjtNeU1-23" target="depg-vYfWqoNCVjtNeU1-81">
          <mxGeometry width="160" relative="1" as="geometry">
            <mxPoint x="230" y="690" as="sourcePoint" />
            <mxPoint x="390" y="690" as="targetPoint" />
          </mxGeometry>
        </mxCell>
        <mxCell id="nV8pJnAJ6u3Ka_N1cegT-14" value="&lt;font style=&quot;font-size: 14px;&quot;&gt;Attends&lt;/font&gt;" style="text;html=1;align=center;verticalAlign=middle;resizable=0;points=[];autosize=1;strokeColor=none;fillColor=none;" vertex="1" parent="WIyWlLk6GJQsqaUBKTNV-1">
          <mxGeometry x="160" y="718" width="70" height="30" as="geometry" />
        </mxCell>
        <mxCell id="nV8pJnAJ6u3Ka_N1cegT-15" value="" style="endArrow=block;endSize=16;endFill=0;html=1;rounded=0;entryX=-0.013;entryY=0.642;entryDx=0;entryDy=0;entryPerimeter=0;exitX=0.75;exitY=0;exitDx=0;exitDy=0;" edge="1" parent="WIyWlLk6GJQsqaUBKTNV-1" source="depg-vYfWqoNCVjtNeU1-54" target="depg-vYfWqoNCVjtNeU1-23">
          <mxGeometry width="160" relative="1" as="geometry">
            <mxPoint x="250" y="870" as="sourcePoint" />
            <mxPoint x="390" y="690" as="targetPoint" />
          </mxGeometry>
        </mxCell>
        <mxCell id="nV8pJnAJ6u3Ka_N1cegT-16" value="" style="endArrow=diamondThin;endFill=1;endSize=24;html=1;rounded=0;exitX=0.189;exitY=1.002;exitDx=0;exitDy=0;exitPerimeter=0;entryX=0.296;entryY=0.003;entryDx=0;entryDy=0;entryPerimeter=0;" edge="1" parent="WIyWlLk6GJQsqaUBKTNV-1" source="depg-vYfWqoNCVjtNeU1-23" target="depg-vYfWqoNCVjtNeU1-94">
          <mxGeometry width="160" relative="1" as="geometry">
            <mxPoint x="260" y="850" as="sourcePoint" />
            <mxPoint x="400" y="1260" as="targetPoint" />
          </mxGeometry>
        </mxCell>
        <mxCell id="nV8pJnAJ6u3Ka_N1cegT-17" value="&lt;font style=&quot;font-size: 14px;&quot;&gt;Views&lt;/font&gt;" style="text;html=1;align=center;verticalAlign=middle;resizable=0;points=[];autosize=1;strokeColor=none;fillColor=none;" vertex="1" parent="WIyWlLk6GJQsqaUBKTNV-1">
          <mxGeometry x="425" y="1120" width="60" height="30" as="geometry" />
        </mxCell>
        <mxCell id="nV8pJnAJ6u3Ka_N1cegT-18" value="" style="endArrow=diamondThin;endFill=0;endSize=24;html=1;rounded=0;exitX=0.762;exitY=1.006;exitDx=0;exitDy=0;exitPerimeter=0;entryX=0.661;entryY=-0.001;entryDx=0;entryDy=0;entryPerimeter=0;" edge="1" parent="WIyWlLk6GJQsqaUBKTNV-1" source="depg-vYfWqoNCVjtNeU1-23" target="depg-vYfWqoNCVjtNeU1-87">
          <mxGeometry width="160" relative="1" as="geometry">
            <mxPoint x="310" y="870" as="sourcePoint" />
            <mxPoint x="789" y="870" as="targetPoint" />
          </mxGeometry>
        </mxCell>
        <mxCell id="nV8pJnAJ6u3Ka_N1cegT-19" value="&lt;font style=&quot;font-size: 14px;&quot;&gt;Purchases&lt;/font&gt;" style="text;html=1;align=center;verticalAlign=middle;resizable=0;points=[];autosize=1;strokeColor=none;fillColor=none;" vertex="1" parent="WIyWlLk6GJQsqaUBKTNV-1">
          <mxGeometry x="790" y="788" width="90" height="30" as="geometry" />
        </mxCell>
        <mxCell id="nV8pJnAJ6u3Ka_N1cegT-21" value="" style="endArrow=diamondThin;endFill=1;endSize=24;html=1;rounded=0;exitX=1.002;exitY=0.765;exitDx=0;exitDy=0;exitPerimeter=0;entryX=1.002;entryY=0.739;entryDx=0;entryDy=0;entryPerimeter=0;" edge="1" parent="WIyWlLk6GJQsqaUBKTNV-1" source="depg-vYfWqoNCVjtNeU1-96" target="depg-vYfWqoNCVjtNeU1-23">
          <mxGeometry width="160" relative="1" as="geometry">
            <mxPoint x="640" y="1569.536" as="sourcePoint" />
            <mxPoint x="860" y="720" as="targetPoint" />
            <Array as="points">
              <mxPoint x="1119.54" y="1400" />
            </Array>
          </mxGeometry>
        </mxCell>
        <mxCell id="nV8pJnAJ6u3Ka_N1cegT-22" value="&lt;font style=&quot;font-size: 14px;&quot;&gt;Broadcasts to&lt;/font&gt;" style="text;html=1;align=center;verticalAlign=middle;resizable=0;points=[];autosize=1;strokeColor=none;fillColor=none;" vertex="1" parent="WIyWlLk6GJQsqaUBKTNV-1">
          <mxGeometry x="940" y="910" width="110" height="30" as="geometry" />
        </mxCell>
        <mxCell id="nV8pJnAJ6u3Ka_N1cegT-23" value="" style="endArrow=diamondThin;endFill=0;endSize=24;html=1;rounded=0;exitX=0;exitY=1;exitDx=0;exitDy=0;entryX=1.012;entryY=0.183;entryDx=0;entryDy=0;entryPerimeter=0;" edge="1" parent="WIyWlLk6GJQsqaUBKTNV-1" source="depg-vYfWqoNCVjtNeU1-24" target="depg-vYfWqoNCVjtNeU1-89">
          <mxGeometry width="160" relative="1" as="geometry">
            <mxPoint x="890" y="640" as="sourcePoint" />
            <mxPoint x="1050" y="640" as="targetPoint" />
          </mxGeometry>
        </mxCell>
        <mxCell id="nV8pJnAJ6u3Ka_N1cegT-24" value="&lt;font style=&quot;font-size: 14px;&quot;&gt;Provides&lt;/font&gt;" style="text;html=1;align=center;verticalAlign=middle;resizable=0;points=[];autosize=1;strokeColor=none;fillColor=none;" vertex="1" parent="WIyWlLk6GJQsqaUBKTNV-1">
          <mxGeometry x="930" y="668" width="80" height="30" as="geometry" />
        </mxCell>
        <mxCell id="nV8pJnAJ6u3Ka_N1cegT-25" value="" style="endArrow=classic;html=1;rounded=0;" edge="1" parent="WIyWlLk6GJQsqaUBKTNV-1">
          <mxGeometry width="50" height="50" relative="1" as="geometry">
            <mxPoint x="200" y="1030" as="sourcePoint" />
            <mxPoint x="200" y="1250" as="targetPoint" />
          </mxGeometry>
        </mxCell>
        <mxCell id="nV8pJnAJ6u3Ka_N1cegT-26" value="&lt;font style=&quot;font-size: 14px;&quot;&gt;Makes&lt;/font&gt;" style="text;html=1;align=center;verticalAlign=middle;resizable=0;points=[];autosize=1;strokeColor=none;fillColor=none;" vertex="1" parent="WIyWlLk6GJQsqaUBKTNV-1">
          <mxGeometry x="210" y="1070" width="60" height="30" as="geometry" />
        </mxCell>
        <mxCell id="nV8pJnAJ6u3Ka_N1cegT-27" value="" style="endArrow=classic;html=1;rounded=0;entryX=0.413;entryY=-0.015;entryDx=0;entryDy=0;entryPerimeter=0;exitX=0;exitY=0.5;exitDx=0;exitDy=0;" edge="1" parent="WIyWlLk6GJQsqaUBKTNV-1" source="nV8pJnAJ6u3Ka_N1cegT-32">
          <mxGeometry width="50" height="50" relative="1" as="geometry">
            <mxPoint x="40" y="1294" as="sourcePoint" />
            <mxPoint x="-235.4400000000001" y="1370" as="targetPoint" />
            <Array as="points">
              <mxPoint x="-235" y="1290" />
            </Array>
          </mxGeometry>
        </mxCell>
        <mxCell id="nV8pJnAJ6u3Ka_N1cegT-28" value="&lt;font style=&quot;font-size: 14px;&quot;&gt;Made by&lt;/font&gt;" style="text;html=1;align=center;verticalAlign=middle;resizable=0;points=[];autosize=1;strokeColor=none;fillColor=none;" vertex="1" parent="WIyWlLk6GJQsqaUBKTNV-1">
          <mxGeometry x="-220" y="1320" width="80" height="30" as="geometry" />
        </mxCell>
        <mxCell id="nV8pJnAJ6u3Ka_N1cegT-29" value="" style="endArrow=diamondThin;endFill=0;endSize=24;html=1;rounded=0;exitX=1.014;exitY=0.783;exitDx=0;exitDy=0;entryX=0.167;entryY=0;entryDx=0;entryDy=0;entryPerimeter=0;exitPerimeter=0;" edge="1" parent="WIyWlLk6GJQsqaUBKTNV-1" source="depg-vYfWqoNCVjtNeU1-85" target="depg-vYfWqoNCVjtNeU1-94">
          <mxGeometry width="160" relative="1" as="geometry">
            <mxPoint x="110" y="1220" as="sourcePoint" />
            <mxPoint x="380" y="1250" as="targetPoint" />
            <Array as="points">
              <mxPoint x="380" y="1140" />
            </Array>
          </mxGeometry>
        </mxCell>
        <mxCell id="nV8pJnAJ6u3Ka_N1cegT-31" value="&lt;font style=&quot;font-size: 14px;&quot;&gt;Broadcasts&lt;/font&gt;" style="text;html=1;align=center;verticalAlign=middle;resizable=0;points=[];autosize=1;strokeColor=none;fillColor=none;" vertex="1" parent="WIyWlLk6GJQsqaUBKTNV-1">
          <mxGeometry x="-140" y="1110" width="90" height="30" as="geometry" />
        </mxCell>
      </root>
    </mxGraphModel>
  </diagram>
</mxfile>
